<svg xmlns="http://www.w3.org/2000/svg" width="9921.24" height="9921.24" viewBox="0 0 11811 11811">
  <defs>
    <style>
      .cls-1, .cls-2, .cls-3, .cls-6 {
        fill: #fff;
      }

      .cls-1, .cls-2, .cls-3, .cls-4 {
        stroke: #0056b3;
      }

      .cls-1 {
        stroke-width: 102.93px;
      }

      .cls-1, .cls-2, .cls-3, .cls-4, .cls-6, .cls-7, .cls-8 {
        fill-rule: evenodd;
      }

      .cls-2, .cls-3 {
        stroke-width: 143.86px;
        stroke-dasharray: 575.44 287.72;
      }

      .cls-2, .cls-8 {
        opacity: 0;
      }

      .cls-4 {
        fill: #0056b3;
        stroke-width: 152.05px;
      }

      .cls-5, .cls-7, .cls-8 {
        fill: #007bff;
      }

      .cls-5 {
        stroke: #fff;
        stroke-width: 113.84px;
      }

      .cls-6, .cls-7, .cls-8 {
        stroke: #000;
      }

      .cls-6 {
        stroke-width: 37.43px;
      }

      .cls-7 {
        stroke-width: 21.06px;
      }

      .cls-8 {
        stroke-linejoin: round;
        stroke-opacity: 0;
        stroke-width: 1px;
      }
    </style>
  </defs>
  <path id="Elipsa_2" data-name="Elipsa 2" class="cls-1" d="M5869,2015c1902.62,0,3445,1509.25,3445,3371S7771.62,8757,5869,8757,2424,7247.75,2424,5386,3966.38,2015,5869,2015Z"/>
  <path id="Elipsa_1_kopia" data-name="Elipsa 1 kopia" class="cls-2" d="M5877.66,2275.68c1774.21,0,3212.5,1397.1,3212.5,3120.51S7651.87,8516.7,5877.66,8516.7s-3212.5-1397.1-3212.5-3120.51S4103.44,2275.68,5877.66,2275.68Z"/>
  <path id="Kształt_6" data-name="Kształt 6" class="cls-3" d="M14320,8423"/>
  <path id="Elipsa_1" data-name="Elipsa 1" class="cls-4" d="M5868,2442c1635.31,0,2961,1326.14,2961,2962S7503.31,8366,5868,8366,2907,7039.87,2907,5404,4232.68,2442,5868,2442Z"/>
  <circle id="Elipsa_3" data-name="Elipsa 3" class="cls-5" cx="5856.59" cy="5378.715" r="2893"/>
  <path id="Kształt_3_kopia" data-name="Kształt 3 kopia" class="cls-6" d="M6053.25,4316.26v113.83s1575.38,212.23,1432.91-699.25c-1.45-9.28-1943.38-11.45-1996.41,0s112.7,146.35,112.7,146.35l1754.91-16.26s53.36,245.42-370.3,374.02S6238.99,4250.05,6053.25,4316.26ZM5376.9,7601.14s76.8-250.4-16.13-585.42-91.19-687.53-80.62-829.35,153.84-393.94,354.74-374.03c50.24,4.98-39.99,42.65,241.86,130.1s946.19-80.97,951.33-81.31,0-81.31,0-81.31l-757.84,32.52s-159.8-124.37,0-146.35c107.49-14.79,773.96-16.26,773.96-16.26V5535.89H6070.24s-95.93-62.83,0-146.35c7.06-6.15,773.96,16.26,773.96,16.26v-81.31s-477.97-135.66-902.95-97.57c-117.14,10.5-349.22,197.62-306.36,195.14s-64.5,0-64.5,0,102.68-1123.09-193.49-1496.08-610.02-105.83-596.6,81.31c13.44,187.36-53.4,3316.77,16.13,3512.54S5105.26,7904.71,5376.9,7601.14Z"/>
  <path id="Kształt_5" data-name="Kształt 5" class="cls-7" d="M5148,3935.65s279.05,354.13,187.58,1256.03-31.26,0-31.26,0S5276.75,4080,5148,3935.65Z"/>
  <path id="Foodie_" data-name="Foodie " class="cls-8" d="M8804,9966.27q4.035,112.4,44.15,194.63,44.595,91.65,126.29,139.6,81.69,48.15,190.61,48.1,72.99,0,132.09-21.4,59.085-21.45,100.8-63.2,41.715-41.7,62.57-101.9l238.69,44a436.728,436.728,0,0,1-103.13,183.7q-74.16,79.35-184.81,123.4-110.655,43.95-248.53,44-190.05,0-326.75-82.3-136.725-82.2-210.3-230.5-73.59-148.35-73.57-346.49,0-195.8,72.99-345.87,73-150.03,206.25-234.63,133.23-84.57,310.52-84.58,115.86,0,219.57,38.23,103.68,38.235,184.23,117.61,80.52,79.38,126.88,201.61,46.32,122.25,46.34,290.25v85.74H8804Zm519.21-475.06q-73.6-49.8-180.18-49.82-106.62,0-182.49,50.98-75.9,51-116.45,135.57-32.535,67.815-38.95,148.31h664.18q-7.44-79.935-34.88-145.42Q9396.775,9541.055,9323.21,9491.21Zm-1165.05-440.3q-66.045,0-112.4-44.6t-46.34-107.18q0-63.72,46.34-107.18t112.4-43.45q66.045,0,112.39,43.45,46.32,43.455,46.34,107.18,0,62.565-46.34,107.18Q8224.185,9050.92,8158.16,9050.91Zm-701,1280.39h-17.38q-25.5,48.6-71.84,100.2-46.365,51.6-119.35,88-72.99,36.6-183.07,36.5-157.59,0-279.24-80.5-121.665-80.55-190.6-228.8-68.955-148.35-68.94-353.43,0-206.22,69.52-353.97,69.525-147.735,191.76-227.1t277.5-79.37q111.24,0,184.81,36.49,73.575,36.51,118.19,87.48,44.58,51,70.1,97.33h12.74V8804.12h252.59V10530.5H7457.16v-199.2Zm-38.82-672.66q-38.835-99.06-114.13-154.68-75.33-55.62-184.23-55.62-108.93,0-183.65,56.78t-113.55,156.42q-38.835,99.66-38.82,230.57,0,129.78,38.82,231.19,38.8,101.4,114.71,159.3,75.87,57.9,182.49,57.9,107.76,0,183.07-56.8,75.3-56.7,114.71-157.5,39.375-100.8,39.4-234.09Q7457.16,9757.725,7418.34,9658.64ZM6033.72,10474.3q-135,82.95-316.9,82.9-180.75,0-315.74-82.9-134.985-82.8-209.72-231.7-74.73-148.8-74.73-345.85,0-199.275,74.73-348.76,74.745-149.475,209.72-232.32t315.74-82.84q181.905,0,316.9,82.84,134.97,82.86,209.72,232.32,74.73,149.46,74.74,348.76,0,197.025-74.74,345.85Q6168.71,10391.55,6033.72,10474.3Zm-9.85-805.23q-38.235-101.37-115.29-161.64-77.07-60.225-191.76-60.25-114.7,0-190.6,60.25-75.9,60.27-114.13,161.64-38.235,101.4-38.24,227.68,0,123.99,38.24,225.35,38.235,101.4,114.13,161.1,75.87,59.7,190.6,59.6,114.72,0,191.76-59.6,77.055-59.7,115.29-161.1t38.24-225.35Q6062.11,9770.465,6023.87,9669.07ZM4623.61,10474.3q-135,82.95-316.9,82.9-180.75,0-315.74-82.9-134.985-82.8-209.72-231.7-74.73-148.8-74.73-345.85,0-199.275,74.73-348.76t209.72-232.32q134.97-82.83,315.74-82.84,181.9,0,316.9,82.84,134.97,82.86,209.72,232.32,74.73,149.46,74.74,348.76,0,197.025-74.74,345.85Q4758.6,10391.55,4623.61,10474.3Zm-9.85-805.23q-38.235-101.37-115.29-161.64-77.07-60.225-191.76-60.25-114.705,0-190.6,60.25-75.9,60.27-114.13,161.64-38.235,101.4-38.24,227.68,0,123.99,38.24,225.35,38.235,101.4,114.13,161.1,75.87,59.7,190.6,59.6,114.705,0,191.76-59.6,77.055-59.7,115.29-161.1T4652,9896.75Q4652,9770.465,4613.76,9669.07Zm-1878.21-90.96h746.18V9802.9H2735.55v727.6H2471.37V8804.12H3557.05v227.1h-821.5v546.89Zm5548.9,952.39H8030.7V9251.37h253.75V10530.5Z"/>
</svg>
